<svg xmlns="http://www.w3.org/2000/svg" xmlns:xlink="http://www.w3.org/1999/xlink" version="1.1" x="0px" y="0px" viewBox="0 0 100 125" enable-background="new 0 0 100 100" xml:space="preserve"><path d="M60.733,30.344L49.179,18.789L37.624,30.344l11.555,11.556L60.733,30.344z M49.179,20.203l10.141,10.141L49.179,40.485  L39.038,30.344L49.179,20.203z M64.504,53.179l3.343-3.343l-3.128-3.128l3.975-3.975l0.531,0.529l0.707-0.707l-1.238-1.236  l-8.731,8.731l8.677,8.677l13.679-13.679l-0.707-0.707L68.639,57.313L64.504,53.179z M57.68,30.344l-8.501-8.5l-8.5,8.5l8.5,8.501  L57.68,30.344z M42.093,30.344l7.086-7.086l7.087,7.086l-3.955,3.955l-3.132-3.131l-3.131,3.131L42.093,30.344z M11.716,53.638  L23.68,41.673l0.707,0.707L11.716,55.052l-5.057-5.056l5.057-5.056l1.228,1.228l-0.707,0.707l-0.521-0.521l-3.643,3.642  L11.716,53.638z M86.986,46.409L75.022,58.374l-0.707-0.707l12.671-12.672l5.057,5.056l-5.057,5.056l-1.228-1.228l0.707-0.707  l0.521,0.521l3.643-3.642L86.986,46.409z M95.058,50.051l-8.07,8.071l-4.025-4.024l0.707-0.707l3.318,3.317l6.656-6.657  l-6.656-6.656L68.639,61.742L56.947,50.051l11.747-11.746l7.651,7.651l-0.707,0.707l-6.944-6.944L58.361,50.051l10.277,10.277  L86.987,41.98L95.058,50.051z M66.418,36.022l-0.707-0.707L51.965,49.062l-2.006-2.006l13.744-13.744l-0.707-0.707L49.251,46.348  L35.416,32.513l-0.707,0.707l13.835,13.835l-2.007,2.007L32.705,35.229l-0.707,0.707l13.833,13.832L31.946,63.653l0.707,0.707  l13.885-13.885l2.006,2.006L34.671,66.355l0.707,0.707l13.873-13.873l13.791,13.79l0.707-0.707l-13.791-13.79l2.007-2.007  L65.78,64.291l0.707-0.707L52.672,49.769L66.418,36.022z M33.839,46.509l-3.328,3.327l3.503,3.472l-4.006,4.005l-0.53-0.529  l-0.707,0.707l1.237,1.236l8.732-8.731l-8.677-8.677L16.385,54.998l0.707,0.707l12.972-12.972L33.839,46.509z M41.755,49.996  L30.008,61.742l-7.651-7.651l0.707-0.707l6.944,6.944l10.333-10.332L30.063,39.719L11.715,58.066l-8.071-8.07l8.071-8.071  l4.025,4.024l-0.707,0.707l-3.318-3.317l-6.657,6.657l6.657,6.656l18.349-18.348L41.755,49.996z M40.679,69.308l8.5,8.501  l8.501-8.501l-8.501-8.5L40.679,69.308z M56.266,69.308l-7.087,7.087l-7.086-7.087l3.945-3.945l3.141,3.141l3.142-3.141  L56.266,69.308z M37.624,69.308l11.555,11.556l11.555-11.556L49.179,57.753L37.624,69.308z M49.179,79.449L39.038,69.308  l10.141-10.141l10.141,10.141L49.179,79.449z"/><text x="0" y="115" fill="#000000" font-size="5px" font-weight="bold" font-family="'Helvetica Neue', Helvetica, Arial-Unicode, Arial, Sans-serif">Created by Laymik</text><text x="0" y="120" fill="#000000" font-size="5px" font-weight="bold" font-family="'Helvetica Neue', Helvetica, Arial-Unicode, Arial, Sans-serif">from the Noun Project</text></svg>